# xmcd
#
# Track frame offsets:
#	150
#	24420
#	42052
#	56202
#	80760
#	100047
#	113992
#	128187
#	155570
#	175080
#	193240
#	210887
#	229485
#	244412
#	267240
#	285952
#	303967
#
# Disc length: 4215 seconds
#
# Revision: 1
# Processed by: cddbd v1.5.2PL0 Copyright (c) Steve Scherf et al.
# Submitted via: audiograbber 1.83.01
#
DISCID=ea107511
DTITLE=David Rodriguez - Landing 92
DYEAR=1992
DGENRE=Blues
TTITLE0=Constant War
TTITLE1=A Kind Of Dying
TTITLE2=Laredo
TTITLE3=They Ain't The Avatars
TTITLE4=Seven Angels
TTITLE5=The Ballad Of Wanda Jewell
TTITLE6=Weary Eyes
TTITLE7=Hurricane
TTITLE8=The Whird World
TTITLE9=Blanca Smiles
TTITLE10=She Hits You Like A Train
TTITLE11=Ballad Of The Snow Leopard
TTITLE12=The Rifle And The Song
TTITLE13=The True Cross
TTITLE14=Homeboy´s Return
TTITLE15=Ballad Of The Western Colonies
TTITLE16=Five Smooth Stones
EXTD=
EXTT0=
EXTT1=
EXTT2=
EXTT3=
EXTT4=
EXTT5=
EXTT6=
EXTT7=
EXTT8=
EXTT9=
EXTT10=
EXTT11=
EXTT12=
EXTT13=
EXTT14=
EXTT15=
EXTT16=
PLAYORDER=
